<?xml version="1.0" encoding="UTF-8" standalone="no"?>
<!-- Created with Inkscape (http://www.inkscape.org/) -->

<svg
   width="1006.2398"
   height="1002.4893"
   viewBox="0 0 266.23429 265.24192"
   version="1.1"
   id="svg373346"
   inkscape:version="1.1 (c68e22c387, 2021-05-23)"
   sodipodi:docname="brain-focus.svg"
   xmlns:inkscape="http://www.inkscape.org/namespaces/inkscape"
   xmlns:sodipodi="http://sodipodi.sourceforge.net/DTD/sodipodi-0.dtd"
   xmlns="http://www.w3.org/2000/svg"
   xmlns:svg="http://www.w3.org/2000/svg">
  <sodipodi:namedview
     id="namedview373348"
     pagecolor="#ffffff"
     bordercolor="#666666"
     borderopacity="1.0"
     inkscape:pageshadow="2"
     inkscape:pageopacity="0.0"
     inkscape:pagecheckerboard="0"
     inkscape:document-units="mm"
     showgrid="false"
     fit-margin-top="0"
     fit-margin-left="0"
     fit-margin-right="0"
     fit-margin-bottom="0"
     inkscape:zoom="0.5499273"
     inkscape:cx="495.52004"
     inkscape:cy="686.45437"
     inkscape:window-width="2560"
     inkscape:window-height="1361"
     inkscape:window-x="2551"
     inkscape:window-y="-9"
     inkscape:window-maximized="1"
     inkscape:current-layer="layer2"
     units="px" />
  <defs
     id="defs373343" />
  <g
     inkscape:groupmode="layer"
     id="layer2"
     inkscape:label="Background"
     transform="translate(1.6509579)">
    <circle
       style="fill:#bbaefe;fill-opacity:1;stroke-width:0.329233"
       id="path844"
       cx="140.18079"
       cy="206.11478"
       r="132.29167"
       transform="translate(-9.5400723,-73.164507)" />
  </g>
  <g
     inkscape:label="Layer 1"
     inkscape:groupmode="layer"
     id="layer1"
     transform="translate(-7.8891143,-73.164507)">
    <path
       style="fill:#000000;stroke-width:1.9836"
       d="m 169.02717,334.63745 c -3.606,-1.8215 -8.31194,-5.5251 -10.45765,-8.23013 l -3.90126,-4.91833 v 4.80964 c 0,2.64528 -1.07564,5.87624 -2.39031,7.17999 -3.34148,3.3136 -61.595478,3.3136 -64.936956,0 -1.314679,-1.30375 -2.390322,-6.19262 -2.390322,-10.86422 0,-6.08487 -0.815364,-8.49387 -2.874947,-8.49387 -4.666529,0 -9.076636,-8.17947 -9.076636,-16.83458 0,-4.42983 -0.934901,-8.9814 -2.077544,-10.11452 -1.213149,-1.20302 -1.83473,-8.96959 -1.493951,-18.66668 0.553914,-15.76148 0.823214,-16.64007 5.293106,-17.26725 4.33764,-0.60859 4.60868,-1.31045 3.432598,-8.8889 -1.223686,-7.88517 -3.32421,-12.67095 -16.18276,-36.87007 -5.032621,-9.47118 -5.781178,-13.01715 -5.837857,-27.65434 -0.05477,-14.11792 0.774458,-18.56573 5.209551,-27.94664 6.717426,-14.20834 18.947361,-26.33564 33.273365,-32.99411 15.215083,-7.07175 38.146223,-7.34074 53.272613,-0.62505 l 10.15134,4.507 7.58159,-4.43593 c 13.76289,-8.05253 36.458,-3.64415 42.92454,8.33792 1.53126,2.83728 4.21215,3.77402 10.80075,3.77402 14.97758,0 27.33079,7.29915 34.10026,20.14887 3.25835,6.18493 3.69119,20.7526 0.83776,28.19507 -1.74034,4.53924 -1.17054,5.84243 4.84452,11.07963 17.54227,15.27383 20.01366,41.47729 5.71341,60.57859 -2.64423,3.53203 -7.49607,7.80049 -10.78188,9.48543 -4.83022,2.47698 -5.70653,3.895 -4.57636,7.40537 2.50061,7.76707 1.25272,20.40313 -2.79083,28.2598 -4.50265,8.74874 -8.59072,12.73725 -17.79189,17.35867 -3.54203,1.77902 -7.79883,5.84026 -9.45958,9.02497 -1.66072,3.18471 -6.28293,8.25876 -10.27152,11.27566 -9.21781,6.97203 -29.6331,8.69302 -40.14315,3.38399 z m 30.09251,-6.93653 c 6.55328,-3.34698 13.32873,-9.98429 12.13968,-11.8922 -0.57869,-0.92847 -3.51286,-1.68819 -6.52039,-1.68819 -7.14083,0 -22.39223,-9.69497 -26.07547,-16.57561 -2.53317,-4.73221 -2.53317,-5.6399 0,-7.24786 2.10015,-1.33314 4.0482,-0.43731 7.08993,3.25982 14.67239,17.83457 41.11997,17.00949 52.5867,-1.64049 8.08425,-13.14862 3.53144,-33.34118 -9.28907,-41.19857 -4.20369,-2.57634 -6.60162,-5.45821 -6.1895,-7.43855 0.96859,-4.65443 7.40674,-2.9561 14.56669,3.84247 7.23451,6.86939 8.70984,7.02296 15.62754,1.62686 16.63485,-12.97577 17.40587,-39.13779 1.58793,-53.88315 l -6.08759,-5.6748 -10.48431,5.18099 c -11.41552,5.64113 -20.00091,6.48154 -27.40598,2.68267 -7.41974,-3.80635 -4.25378,-6.39064 7.82899,-6.39064 19.13721,0 30.71679,-11.71515 29.16555,-29.5071 -0.70808,-8.12117 -2.04416,-10.83891 -7.98131,-16.23446 -12.09707,-10.9936 -25.82424,-11.22021 -37.27243,-0.61525 -7.14805,6.62157 -8.97664,7.12611 -10.60218,2.92541 -0.68557,-1.77162 1.59916,-5.57241 5.7563,-9.57608 6.46967,-6.23084 6.67932,-6.82343 3.41353,-9.64815 -6.15195,-5.32109 -11.99019,-7.46785 -20.30921,-7.46785 -6.47248,0 -9.63876,1.373 -15.54577,6.74122 -7.24145,6.58092 -7.43554,7.12813 -8.16297,23.0128 -0.69911,15.26628 -0.51591,16.17251 2.96523,14.66752 11.167,-4.82782 26.6176,-2.44146 26.6176,4.11108 0,2.40575 -1.8416,2.71924 -9.81303,1.6706 -8.79265,-1.15664 -10.3461,-0.76222 -14.93949,3.79281 -5.02434,4.98242 -5.12645,5.64052 -5.12645,33.03914 0,25.89761 0.25663,27.84141 3.48588,26.40615 1.91723,-0.85216 7.58477,-1.91132 12.59454,-2.35372 7.64576,-0.67511 10.1251,0.0448 15.43746,4.47658 6.39648,5.33737 8.55044,12.83098 3.68812,12.83098 -1.45236,0 -4.74589,-2.22225 -7.31896,-4.9383 -9.69623,-10.23503 -27.88704,-3.14828 -27.88704,10.8642 0,6.5915 7.49412,15.80248 12.85702,15.80248 1.807,0 3.07843,1.72676 3.07843,4.18093 0,4.28012 -3.55287,4.50846 -12.44957,0.80003 -3.15883,-1.31668 -3.48558,0.0957 -3.48279,15.05462 0.004,19.29483 3.40424,27.89479 13.73701,34.73995 7.47357,4.95094 21.31893,6.04131 28.71938,2.26166 z m -52.41914,-6.66675 v -6.91364 h -19.91931 c -18.59136,0 -19.91931,-0.26316 -19.91931,-3.95058 0,-3.69979 1.32795,-3.95064 20.91527,-3.95064 h 20.91528 v -23.7037 -23.70372 H 112.83771 76.982948 v 11.85184 11.85188 h 25.681992 c 20.19509,0 25.91098,0.59178 26.75383,2.76986 0.58951,1.5234 0.53601,3.30118 -0.11891,3.95058 -0.65485,0.64946 -11.85181,1.18078 -24.8821,1.18078 H 80.726327 l 0.618232,7.32943 c 0.502532,5.95805 1.549965,7.54379 5.598051,8.47534 4.419696,1.017 5.047549,2.30338 5.58191,11.43602 l 0.602078,10.29011 h 26.786982 26.78697 z m -35.82923,-71.60503 c 0.0141,-0.81481 -1.46853,-7.81706 -3.29461,-15.56058 -3.5463,-15.03821 -2.72513,-22.62705 2.02538,-18.71739 1.48116,1.21902 4.36166,9.76356 6.40111,18.9879 2.15636,9.75314 4.71443,16.7716 6.11287,16.7716 2.62429,0 2.73983,-0.31916 7.68882,-21.25221 3.48676,-14.74797 5.73445,-18.26036 9.37503,-14.65013 1.86317,1.8476 -0.48746,15.3515 -5.64781,32.44549 -0.87276,2.8911 0.26872,3.45685 6.97461,3.45685 h 8.01816 l 0.58179,-58.76549 c 0.31998,-32.32101 1.29128,-60.16937 2.15843,-61.88528 2.60734,-5.1592 -12.62619,-10.70737 -29.39916,-10.70737 -47.684763,0 -74.575004,51.48165 -47.826427,91.56421 5.53885,8.29992 12.903103,28.36979 12.903103,35.16488 0,4.34085 0.744089,4.62905 11.951588,4.62905 6.573366,0 11.963076,-0.6667 11.977116,-1.48153 z m -74.858248,7.19034 c -2.037365,-3.26903 15.9574,-20.38077 19.867682,-18.89282 4.735719,1.80213 3.927808,4.44483 -4.02872,13.1783 -7.108519,7.80264 -13.173778,9.9909 -15.838962,5.71452 z M 15.990017,210.51142 c -1.724699,-4.45705 0.441946,-6.34117 10.050926,-8.74057 12.381761,-3.09172 15.087244,-2.80621 15.087244,1.59222 0,2.91078 -2.541386,4.54305 -10.76421,6.91355 -13.120652,3.78246 -13.001874,3.78048 -14.37396,0.23462 z m 4.241314,-48.15425 c -6.169892,-2.04715 -10.192544,-4.60979 -10.6036931,-6.75523 -0.795287,-4.14986 3.7482731,-4.47479 16.8446181,-1.20462 9.402915,2.34789 13.241705,6.77409 8.472413,9.76882 -3.377591,2.1208 -2.569951,2.22012 -14.713338,-1.80897 z M 40.26944,118.70422 c -7.467666,-7.58376 -8.654013,-13.96651 -2.595924,-13.96651 3.79752,0 17.398191,14.34856 17.398191,18.35492 0,5.76712 -6.782111,3.75646 -14.802267,-4.38841 z M 84.813989,95.492309 c -1.116504,-2.912142 -2.57327,-9.225189 -3.237248,-14.029055 -1.083138,-7.836394 -0.818196,-8.660331 2.577296,-8.015123 4.185905,0.795379 11.386986,19.4601 9.444573,24.479707 -1.787087,4.618202 -6.590856,3.286342 -8.784621,-2.435529 z m 50.727751,2.519016 c -1.77248,-4.580455 3.19819,-23.029937 6.5482,-24.304731 5.9845,-2.277294 7.11764,2.639231 3.31814,14.396818 -3.7424,11.580872 -7.68637,15.541488 -9.86634,9.907913 z"
       id="path373380" />
  </g>
</svg>
