<?xml version="1.0" encoding="UTF-8" standalone="no"?>
<!-- Created with Inkscape (http://www.inkscape.org/) -->

<svg
   width="1006.2398"
   height="1002.4893"
   viewBox="0 0 266.23429 265.24192"
   version="1.1"
   id="svg373346"
   inkscape:version="1.1 (c68e22c387, 2021-05-23)"
   sodipodi:docname="heart.svg"
   xmlns:inkscape="http://www.inkscape.org/namespaces/inkscape"
   xmlns:sodipodi="http://sodipodi.sourceforge.net/DTD/sodipodi-0.dtd"
   xmlns="http://www.w3.org/2000/svg"
   xmlns:svg="http://www.w3.org/2000/svg">
  <sodipodi:namedview
     id="namedview373348"
     pagecolor="#ffffff"
     bordercolor="#666666"
     borderopacity="1.0"
     inkscape:pageshadow="2"
     inkscape:pageopacity="0.0"
     inkscape:pagecheckerboard="0"
     inkscape:document-units="mm"
     showgrid="false"
     fit-margin-top="0"
     fit-margin-left="0"
     fit-margin-right="0"
     fit-margin-bottom="0"
     inkscape:zoom="0.5499273"
     inkscape:cx="495.52004"
     inkscape:cy="686.45437"
     inkscape:window-width="2560"
     inkscape:window-height="1361"
     inkscape:window-x="2551"
     inkscape:window-y="-9"
     inkscape:window-maximized="1"
     inkscape:current-layer="layer1"
     units="px" />
  <defs
     id="defs373343" />
  <g
     inkscape:groupmode="layer"
     id="layer2"
     inkscape:label="Background"
     transform="translate(1.6509579)">
    <circle
       style="fill:#df6c6c;fill-opacity:1;stroke-width:0.329233"
       id="path844"
       cx="140.18079"
       cy="206.11478"
       r="132.29167"
       transform="translate(-9.5400723,-73.164507)"
       inkscape:export-filename="D:\projects\bienestar\images\b.png"
       inkscape:export-xdpi="96"
       inkscape:export-ydpi="96" />
  </g>
  <g
     inkscape:label="Layer 1"
     inkscape:groupmode="layer"
     id="layer1"
     transform="translate(-7.8891143,-73.164507)">
    <path
       style="fill:#000000;stroke-width:0.331384"
       d="m 138.20933,336.75676 c -2.89256,-1.76248 -6.07167,-4.44663 -16.72135,-14.11799 C 100.57552,303.6474 87.233932,290.17986 71.788606,272.47018 37.895751,233.6085 17.996286,197.73528 13.701896,167.75594 c -2.3808,-16.62047 2.710361,-36.57503 13.451089,-52.72093 10.747188,-16.155614 27.527448,-27.208664 45.225221,-29.789584 4.799988,-0.69999 7.283579,-0.70415 12.199984,-0.0204 14.54737,2.023136 28.26707,9.314594 39.14915,20.806154 3.10944,3.28359 8.11738,10.26385 11.00106,15.33369 3.36866,5.92248 3.44216,6.00207 5.54286,6.00207 2.09458,0 2.25414,-0.15454 4.55176,-4.40927 3.86053,-7.14895 9.92117,-15.19441 15.24056,-20.23175 5.65145,-5.351795 13.70122,-10.66682 20.39136,-13.46381 3.558,-1.48752 10.07387,-3.347104 13.698,-3.909327 14.92439,-2.315248 32.25329,3.262282 45.98963,14.802357 13.49544,11.33768 23.36722,29.30333 26.43929,48.11682 0.72793,4.45783 0.72151,16.21885 -0.0117,21.42407 -1.2367,8.77971 -5.33261,22.58176 -8.66989,29.21501 -1.06807,2.12294 -1.57171,2.76555 -2.57326,3.28341 -1.57945,0.81666 -1.85839,0.8129 -3.42456,-0.0461 -1.34931,-0.7401 -2.64614,-2.79983 -2.64614,-4.20283 0,-0.41566 1.03633,-3.64809 2.30293,-7.18318 4.02636,-11.23753 5.52959,-17.68818 6.15613,-26.41703 1.15521,-16.09403 -2.78749,-32.53488 -10.60193,-44.20952 -3.80067,-5.67815 -10.51649,-12.4829 -15.8025,-16.01179 -11.66592,-7.78804 -27.35723,-10.37728 -42.86564,-7.073292 -15.92924,3.393642 -29.90523,15.390822 -37.16582,31.903632 -3.54662,8.06617 -5.24368,15.31375 -6.31861,26.98479 -0.45082,4.89478 -0.75237,6.06775 -1.78161,6.92992 -1.49102,1.24902 -2.82326,1.89272 -3.40947,1.64736 -1.29053,-0.54023 -2.91173,-1.93731 -3.34199,-2.88006 -0.2532,-0.55476 -0.68517,-3.44387 -0.95994,-6.42024 -1.76934,-19.16535 -6.60184,-31.11838 -17.32011,-42.84071 -9.25776,-10.12496 -20.051034,-15.278496 -34.40876,-16.42935 -8.878436,-0.711659 -17.543542,0.347155 -24.535259,2.998029 -10.833838,4.107601 -21.11957,13.190541 -27.792757,24.542711 -3.57157,6.07582 -6.032491,13.05439 -7.586701,21.51404 -0.783305,4.26358 -0.969666,6.24571 -1.116361,11.87302 -0.113698,4.36193 -0.04262,7.98594 0.200606,10.22953 2.627691,24.2379 17.18478,52.49746 43.945311,85.31073 6.234357,7.64447 20.615972,23.77498 27.707383,31.07679 12.242258,12.6055 31.535578,30.85623 41.260418,39.03077 2.59267,2.17935 2.96184,2.38101 4.35894,2.38101 2.03386,0 2.53072,-0.39683 17.23681,-13.76657 7.19716,-6.54314 10.88194,-9.66468 12.53989,-10.62304 1.00489,-0.58086 1.38166,-0.63583 2.18462,-0.31867 1.48861,0.58798 2.37097,1.74241 2.89608,3.78908 0.46004,1.79303 0.45195,1.91905 -0.20871,3.25094 -0.82294,1.65906 -3.60222,4.40007 -14.22449,14.02867 -12.1571,11.01984 -17.97908,15.8506 -19.84291,16.46452 -0.38762,0.12768 -1.35109,-0.23876 -2.55252,-0.97083 z m 61.60461,-34.17059 c -1.85017,-0.67109 -1.66975,-0.12265 -16.2584,-49.42316 -8.84385,-29.88668 -11.00075,-36.82863 -11.6997,-37.65525 -0.72607,-0.85867 -1.10129,-1.01346 -2.45669,-1.01346 -1.26193,0 -1.7348,0.16758 -2.23932,0.79366 -1.15601,1.43452 -3.93951,7.37462 -14.42181,30.77677 -6.05075,13.50857 -8.60231,18.96142 -9.68535,20.69822 -0.83635,1.34124 -2.38815,1.85472 -3.97602,1.31569 -2.41827,-0.82094 -2.07333,0.0396 -8.18513,-20.41863 -4.91733,-16.45985 -6.33976,-20.78886 -7.15318,-21.76992 -0.56462,-0.68097 -0.99104,-0.81353 -2.61724,-0.81353 h -1.94272 l -4.06188,4.43395 -4.06188,4.43392 -8.80657,-0.11506 c -10.152101,-0.13265 -10.634286,-0.24686 -11.779548,-2.79046 -0.484586,-1.07628 -0.629259,-1.88286 -0.513346,-2.86206 0.467616,-3.95022 2.772603,-4.84416 12.523524,-4.857 l 5.30141,-0.007 2.01457,-2.3281 c 4.05277,-4.68349 11.61469,-12.578 13.0051,-13.5771 1.59043,-1.14283 2.48228,-1.2677 3.74975,-0.52506 1.66566,0.97594 3.40771,5.70974 8.44798,22.95599 3.67038,12.55889 3.82787,12.8751 6.41299,12.8751 1.45631,0 1.71708,-0.12302 2.55623,-1.20593 1.52329,-1.96578 4.06661,-7.35183 15.00449,-31.77547 5.39994,-12.05774 8.45432,-18.41597 9.39809,-19.56378 1.60287,-1.94942 5.30273,-0.93478 6.22974,1.70842 0.79971,2.2802 5.89391,19.21292 13.01257,43.2528 11.22169,37.89584 12.12677,40.83445 12.84717,41.71178 0.52711,0.64192 0.98735,0.79367 2.40711,0.79367 2.7728,0 1.98771,1.44489 14.27905,-26.2793 7.74937,-17.4794 10.69344,-23.79406 11.99454,-25.72688 0.48474,-0.72009 1.30762,-1.40069 1.98847,-1.64466 1.50927,-0.5408 25.86875,-0.85706 29.90155,-0.38822 2.50878,0.29166 3.0555,0.47838 4.04715,1.3821 0.67813,0.61801 1.33536,1.65065 1.60876,2.5277 0.44125,1.41548 0.42711,1.55765 -0.31131,3.13015 -0.4322,0.92035 -1.22415,1.94214 -1.79461,2.31541 -1.48455,0.97139 -5.65332,1.2632 -18.30028,1.28101 l -10.91574,0.0154 -0.80366,0.97004 c -0.44202,0.53354 -5.5731,11.76397 -11.40238,24.95653 -10.31965,23.35492 -16.01259,35.8369 -18.23886,39.98937 -1.47922,2.75908 -2.64762,3.31353 -5.10462,2.42236 z"
       id="path373202" />
  </g>
</svg>
