<?xml version="1.0" encoding="UTF-8" standalone="no"?>
<!-- Created with Inkscape (http://www.inkscape.org/) -->

<svg
   width="230mm"
   height="230mm"
   viewBox="0 0 229.99999 229.99999"
   version="1.1"
   id="svg897"
   inkscape:version="1.1 (c68e22c387, 2021-05-23)"
   sodipodi:docname="logo-green.svg"
   inkscape:export-filename="D:\projects\bienestar\images\logo-black.png"
   inkscape:export-xdpi="96"
   inkscape:export-ydpi="96"
   xmlns:inkscape="http://www.inkscape.org/namespaces/inkscape"
   xmlns:sodipodi="http://sodipodi.sourceforge.net/DTD/sodipodi-0.dtd"
   xmlns="http://www.w3.org/2000/svg"
   xmlns:svg="http://www.w3.org/2000/svg">
  <sodipodi:namedview
     id="namedview899"
     pagecolor="#ffffff"
     bordercolor="#666666"
     borderopacity="1.0"
     inkscape:pageshadow="2"
     inkscape:pageopacity="0.0"
     inkscape:pagecheckerboard="0"
     inkscape:document-units="mm"
     showgrid="false"
     fit-margin-top="0"
     fit-margin-left="0"
     fit-margin-right="0"
     fit-margin-bottom="0"
     showguides="true"
     inkscape:guide-bbox="true"
     inkscape:zoom="0.77771465"
     inkscape:cx="186.4437"
     inkscape:cy="462.25181"
     inkscape:window-width="2560"
     inkscape:window-height="1361"
     inkscape:window-x="2551"
     inkscape:window-y="-9"
     inkscape:window-maximized="1"
     inkscape:current-layer="layer1" />
  <defs
     id="defs894" />
  <g
     inkscape:label="Layer 1"
     inkscape:groupmode="layer"
     id="layer1"
     transform="translate(-44.739777,-26.118579)">
    <g
       id="g1073"
       transform="translate(-71.092781,-136.75257)">
      <path
         class="cls-1"
         d="m 240.49275,228.0741 c 1.23825,-7.45331 6.27856,-33.39306 19.68235,-57.28229 a 8.9958332,8.9958332 0 0 1 12.81907,-3.08239 l 0.0291,0.0212 a 8.9958332,8.9958332 0 0 1 2.82046,11.96446 c -5.41602,9.46944 -14.31396,27.51667 -17.89377,48.97967 a 1.8123958,1.8123958 0 0 1 -1.78859,1.50812 h -13.87739 a 1.8150416,1.8150416 0 0 1 -1.79123,-2.10873 z"
         id="path34"
         style="fill:#46cd99;stroke-width:0.264583" />
      <path
         class="cls-1"
         d="M 281.10894,235.54065 H 180.56727 a 10.44575,10.44575 0 0 0 -10.03829,13.35352 c -0.082,-0.21696 -0.15875,-0.43392 -0.22754,-0.65882 0.39158,4.18571 2.43946,8.20209 6.08542,11.9433 4.27037,4.36298 5.4557,10.67593 3.02418,16.08402 -4.85775,10.79764 -7.42421,23.07431 -7.42421,35.50443 0,16.83544 4.49792,32.66017 13.00428,45.77292 a 7.4929999,7.4929999 0 0 1 0.59531,7.12523 c -0.20373,0.46037 -0.39688,0.92604 -0.57944,1.39171 a 10.437812,10.437812 0 0 0 -4.05606,8.26558 v 4.7625 a 10.451042,10.451042 0 0 0 10.45104,10.45104 h 78.84583 a 10.451042,10.451042 0 0 0 10.45104,-10.45104 v -4.7625 a 10.437812,10.437812 0 0 0 -4.23333,-8.40846 c -0.0609,-0.15081 -0.11642,-0.30427 -0.17992,-0.45508 a 7.6411666,7.6411666 0 0 1 0.64559,-7.16756 c 8.70743,-13.05455 13.49375,-29.57513 13.49375,-46.5164 0,-12.573 -2.62467,-24.97667 -7.58825,-35.86692 -2.49502,-5.47422 -1.4949,-11.74485 2.55058,-15.97818 3.02154,-3.175 4.91067,-6.54579 5.61446,-10.05417 0.0767,-0.37835 0.13758,-0.762 0.18521,-1.143 a 10.456333,10.456333 0 0 0 -10.08857,-13.18419 z"
         id="path36"
         style="fill:#46cd99;stroke-width:0.264583" />
    </g>
  </g>
</svg>
