<?xml version="1.0" encoding="UTF-8" standalone="no"?>
<!-- Created with Inkscape (http://www.inkscape.org/) -->

<svg
   width="1006.2398"
   height="1002.4893"
   viewBox="0 0 266.23429 265.24192"
   version="1.1"
   id="svg373346"
   inkscape:version="1.1 (c68e22c387, 2021-05-23)"
   sodipodi:docname="scale.svg"
   inkscape:export-filename="D:\projects\bienestar\images\heart.png"
   inkscape:export-xdpi="96"
   inkscape:export-ydpi="96"
   xmlns:inkscape="http://www.inkscape.org/namespaces/inkscape"
   xmlns:sodipodi="http://sodipodi.sourceforge.net/DTD/sodipodi-0.dtd"
   xmlns="http://www.w3.org/2000/svg"
   xmlns:svg="http://www.w3.org/2000/svg">
  <sodipodi:namedview
     id="namedview373348"
     pagecolor="#ffffff"
     bordercolor="#666666"
     borderopacity="1.0"
     inkscape:pageshadow="2"
     inkscape:pageopacity="0.0"
     inkscape:pagecheckerboard="0"
     inkscape:document-units="mm"
     showgrid="false"
     fit-margin-top="0"
     fit-margin-left="0"
     fit-margin-right="0"
     fit-margin-bottom="0"
     inkscape:zoom="0.5499273"
     inkscape:cx="495.52004"
     inkscape:cy="686.45437"
     inkscape:window-width="2560"
     inkscape:window-height="1361"
     inkscape:window-x="2551"
     inkscape:window-y="-9"
     inkscape:window-maximized="1"
     inkscape:current-layer="layer1"
     units="px" />
  <defs
     id="defs373343" />
  <g
     inkscape:groupmode="layer"
     id="layer2"
     inkscape:label="Background"
     transform="translate(1.6509579)">
    <circle
       style="fill:#f5a354;fill-opacity:1;stroke-width:0.329233"
       id="path844"
       cx="140.18079"
       cy="206.11478"
       r="132.29167"
       transform="translate(-9.5400723,-73.164507)"
       inkscape:export-filename="D:\projects\bienestar\images\b.png"
       inkscape:export-xdpi="96"
       inkscape:export-ydpi="96" />
  </g>
  <g
     inkscape:label="Layer 1"
     inkscape:groupmode="layer"
     id="layer1"
     transform="translate(-7.8891143,-73.164507)">
    <path
       style="fill:#000000;fill-opacity:1;stroke-width:0.342126"
       d="M 123.4118,331.30115 C 77.643822,329.76561 50.087402,325.3251 40.302498,317.90869 31.561035,311.28316 25.09152,289.29992 20.188867,249.56305 c -2.275612,-18.44417 -4.219733,-43.9321 -5.851801,-76.71875 -0.593548,-11.92364 -0.612207,-46.68598 -0.02654,-49.41491 0.59963,-2.79392 3.167258,-7.60795 5.497431,-10.30705 7.026321,-8.13879 20.740695,-14.04585 38.967331,-16.784041 3.832085,-0.575698 8.954614,-1.074826 15.8805,-1.547364 3.059374,-0.208734 5.028957,-0.490021 5.288676,-0.755307 0.22762,-0.232483 0.919812,-2.005657 1.53822,-3.940375 2.176118,-6.808118 4.264378,-9.891033 8.031573,-11.857071 3.122452,-1.629557 4.939009,-1.690762 50.493383,-1.70135 l 41.92638,-0.0098 1.97773,0.931277 c 2.42119,1.140096 4.24451,3.018329 5.56028,5.727718 0.92977,1.914556 2.07012,6.829437 2.07012,8.92213 0,0.506079 0.19653,1.070364 0.43673,1.253969 0.24369,0.186265 4.22035,0.433137 8.99671,0.558519 16.64978,0.437069 23.64517,1.081826 31.14214,2.870326 7.47677,1.783686 18.59136,6.557199 23.43414,10.064539 6.99703,5.06753 10.74383,13.77489 12.82603,29.80697 1.16397,8.96204 1.42684,13.55445 1.42662,24.92362 -6.9e-4,39.67941 -8.44862,100.09205 -18.71321,133.82218 -4.77082,15.67726 -7.97171,20.19 -17.62279,24.84524 -11.84122,5.71168 -29.345,9.20806 -53.80551,10.74764 -7.31423,0.46036 -45.41421,0.66351 -56.25122,0.29993 z m 52.93205,-6.52806 c 30.02606,-1.42429 52.8536,-6.93992 60.66499,-14.65797 2.61416,-2.58292 4.71417,-7.07777 7.23806,-15.49236 8.45254,-28.18054 15.19166,-68.28846 18.09753,-107.70776 0.77276,-10.48283 0.88674,-37.1909 0.18587,-43.55214 -1.14007,-10.34746 -3.46228,-20.17726 -5.98722,-25.34375 -1.95266,-3.99548 -3.91674,-5.73607 -9.6426,-8.5453 -5.79972,-2.84548 -13.90677,-5.81704 -18.63398,-6.83009 -10.10229,-2.16493 -23.28903,-3.193636 -31.43323,-2.45213 l -5.01579,0.45668 -0.11826,24.62371 c -0.19753,41.13177 -1.10628,60.88228 -2.95957,64.32232 -1.30511,2.42254 -4.66742,4.71448 -8.38371,5.7148 -1.13747,0.30618 -5.63243,0.43014 -16.41532,0.45273 l -14.84891,0.031 v 64.49065 64.49066 l 10.48159,0.17345 c 5.76487,0.0954 10.95326,0.13988 11.52974,0.0989 0.5765,-0.041 2.93486,-0.16406 5.24081,-0.27345 z m -46.8178,-64.48952 v -64.49064 l -15.19831,-0.0199 c -17.272809,-0.0226 -18.490579,-0.15429 -23.75298,-2.56822 -5.009705,-2.29804 -8.829478,-6.68306 -10.024034,-11.50735 -0.509326,-2.05698 -0.597936,-6.74989 -0.780731,-41.34973 l -0.2062,-39.02941 -4.982765,0.0656 c -9.070499,0.11946 -24.623813,2.68273 -32.226896,5.31115 -9.427217,3.25906 -17.113105,8.88308 -20.124644,14.7259 -1.215809,2.35884 -1.276945,2.65139 -1.586312,7.59115 -0.436653,6.97213 0.170019,38.52726 1.106787,57.56784 2.737677,55.6456 8.598936,96.79169 16.629855,116.74192 3.428027,8.51586 6.735642,11.28205 16.799697,14.04984 9.788332,2.69196 24.524676,4.8813 43.073658,6.39936 3.553465,0.29081 6.613475,0.6751 6.800005,0.85397 0.20981,0.20117 4.94129,0.29163 12.40602,0.23718 l 12.06685,-0.0881 z m 9.78283,-68.6809 c 37.48294,-0.65338 44.15646,-1.29493 45.6787,-4.3912 1.12799,-2.29435 1.37674,-8.48344 1.40557,-34.97067 0.0424,-38.91079 -0.6196,-64.149485 -1.74245,-66.435917 -0.91095,-1.854938 -2.53546,-2.780641 -5.42501,-3.091358 -1.39844,-0.150377 -21.37011,-0.212105 -44.38151,-0.137177 -36.216995,0.117928 -41.974346,0.203407 -42.847036,0.636135 -1.482005,0.734851 -3.423055,3.067577 -4.191744,5.037566 -1.453205,3.724291 -1.494028,5.199549 -1.321443,47.752531 0.167384,41.2728 0.272465,44.65749 1.520392,48.97308 1.053188,3.64213 4.238599,6.14713 8.408495,6.61238 3.449291,0.38487 21.307056,0.39096 42.896036,0.0147 z m 35.23469,-52.10499 c -0.45549,-1.13815 3.34371,-11.27153 6.24409,-16.65456 1.56287,-2.90064 2.17676,-3.19152 3.60876,-1.70992 0.93446,0.96684 1.04145,1.30967 0.5074,1.62616 -0.19216,0.11388 -0.34938,0.44315 -0.34938,0.73171 0,0.71503 -4.02204,10.46654 -5.45076,13.2155 -0.63505,1.2219 -1.40913,2.46564 -1.72016,2.76388 -0.72391,0.69414 -2.56598,0.71179 -2.83995,0.0273 z m -75.243415,-2.4065 c -1.29921,-0.87257 -8.730694,-16.15207 -8.730694,-17.95073 0,-0.57705 0.586131,-1.07247 1.632158,-1.37957 0.541019,-0.15883 0.977383,-0.002 1.520977,0.54528 1.635129,1.64741 8.376624,16.04195 8.376624,17.8859 0,1.05785 -1.7336,1.61471 -2.799065,0.89912 z m 67.147085,-3.54913 c -1.0561,-1.07794 -0.97041,-1.81929 0.76223,-6.59499 3.11157,-8.57647 5.14849,-12.39561 6.6111,-12.39561 1.99915,0 2.10803,1.45589 0.46033,6.15538 -2.50016,7.13078 -5.74543,13.61058 -6.81657,13.61058 -0.14159,0 -0.59927,-0.34891 -1.01709,-0.77536 z m -58.26492,-2.29756 c -1.04116,-1.93057 -4.30366,-10.87071 -5.28922,-14.49393 -0.84482,-3.10582 -0.90162,-3.60154 -0.4445,-3.87985 1.77746,-1.0822 3.25457,0.47 5.31932,5.5897 2.92973,7.26448 4.06239,11.32401 3.6254,12.99355 -0.18545,0.70849 -0.4283,0.85337 -1.43059,0.85337 -1.00256,0 -1.3044,-0.18018 -1.78041,-1.06284 z m 29.43971,0.81156 c -0.65847,-1.06157 -0.40509,-24.73404 0.28151,-26.29878 0.16022,-0.36514 0.63599,-0.58628 1.26136,-0.58628 0.79736,0 1.05946,0.18973 1.27283,0.9213 0.35041,1.20148 0.35041,24.09225 0,25.29374 -0.22614,0.77536 -0.45807,0.9213 -1.46428,0.9213 -0.65756,0 -1.26571,-0.11308 -1.35142,-0.25128 z m -18.67393,-3.247 c -1.20924,-1.47407 -4.57253,-12.60022 -5.1511,-17.04033 -0.21784,-1.67191 -0.16942,-1.8832 0.51173,-2.23275 0.41379,-0.21235 1.17694,-0.3391 1.69588,-0.28168 0.84859,0.094 1.04378,0.39096 1.93977,2.95205 2.65329,7.58417 4.30296,15.84167 3.37827,16.91005 -0.64804,0.74871 -1.61039,0.62416 -2.37455,-0.30734 z m 39.66438,0.12937 c -0.44432,-0.25403 -0.61098,-0.77993 -0.60981,-1.92425 0.002,-1.99824 1.15254,-9.57184 2.13875,-14.07907 0.93427,-4.26989 1.63361,-5.10539 3.29569,-3.93732 0.55724,0.39161 0.66468,0.83152 0.60235,2.46617 -0.12107,3.17557 -2.44064,16.83522 -2.94013,17.31417 -0.37793,0.36239 -1.95554,0.46408 -2.48685,0.1603 z m -32.32912,-2.74515 c -0.78109,-0.91248 -3.01768,-16.29438 -2.58955,-17.80939 0.71803,-2.54085 2.82199,-2.03915 3.72892,0.88918 0.59715,1.92815 1.75505,9.34484 2.11011,13.51603 0.19381,2.27682 0.13791,2.79881 -0.34975,3.26642 -0.68311,0.65502 -2.38763,0.736 -2.89973,0.13776 z m 22.4522,-0.0477 c -0.65999,-0.46327 -0.69202,-0.90185 -0.69202,-9.4739 0,-4.94348 0.12338,-9.54497 0.27418,-10.22555 0.34912,-1.57568 1.48763,-2.04009 2.38787,-0.97406 0.89511,1.05993 1.09094,3.46316 0.94806,11.63416 -0.0984,5.62823 -0.24893,7.56033 -0.64893,8.32909 -0.60856,1.16965 -1.30443,1.38746 -2.26916,0.71026 z"
       id="path373042" />
  </g>
</svg>
