<?xml version="1.0" encoding="UTF-8" standalone="no"?>
<!-- Created with Inkscape (http://www.inkscape.org/) -->

<svg
   width="1006.2398"
   height="1002.4893"
   viewBox="0 0 266.23429 265.24192"
   version="1.1"
   id="svg373346"
   inkscape:version="1.1 (c68e22c387, 2021-05-23)"
   sodipodi:docname="strenght.svg"
   inkscape:export-filename="D:\projects\bienestar\images\scale"
   inkscape:export-xdpi="96"
   inkscape:export-ydpi="96"
   xmlns:inkscape="http://www.inkscape.org/namespaces/inkscape"
   xmlns:sodipodi="http://sodipodi.sourceforge.net/DTD/sodipodi-0.dtd"
   xmlns="http://www.w3.org/2000/svg"
   xmlns:svg="http://www.w3.org/2000/svg">
  <sodipodi:namedview
     id="namedview373348"
     pagecolor="#ffffff"
     bordercolor="#666666"
     borderopacity="1.0"
     inkscape:pageshadow="2"
     inkscape:pageopacity="0.0"
     inkscape:pagecheckerboard="0"
     inkscape:document-units="mm"
     showgrid="false"
     fit-margin-top="0"
     fit-margin-left="0"
     fit-margin-right="0"
     fit-margin-bottom="0"
     inkscape:zoom="0.5499273"
     inkscape:cx="495.52004"
     inkscape:cy="686.45437"
     inkscape:window-width="2560"
     inkscape:window-height="1361"
     inkscape:window-x="2551"
     inkscape:window-y="-9"
     inkscape:window-maximized="1"
     inkscape:current-layer="layer1"
     units="px" />
  <defs
     id="defs373343" />
  <g
     inkscape:groupmode="layer"
     id="layer2"
     inkscape:label="Background"
     transform="translate(1.6509579)">
    <circle
       style="fill:#93be65;fill-opacity:1;stroke-width:0.329233"
       id="path844"
       cx="140.18079"
       cy="206.11478"
       r="132.29167"
       transform="translate(-9.5400723,-73.164507)"
       inkscape:export-filename="D:\projects\bienestar\images\b.png"
       inkscape:export-xdpi="96"
       inkscape:export-ydpi="96" />
  </g>
  <g
     inkscape:label="Layer 1"
     inkscape:groupmode="layer"
     id="layer1"
     transform="translate(-7.8891143,-73.164507)">
    <g
       id="g372521"
       transform="matrix(2.1701784,0,0,2.2569094,-91.423037,-38.827601)"
       style="fill:#000000">
      <path
         style="fill:#000000;fill-opacity:1;stroke-width:0.222807"
         d="m 116.35168,161.94067 c 0.16083,-0.0644 0.35301,-0.0565 0.42704,0.0176 0.074,0.074 -0.0576,0.1267 -0.29243,0.11702 -0.25956,-0.0107 -0.31235,-0.0635 -0.13461,-0.13461 z m -3.686,-3.34431 c 0.21678,-0.0565 0.51757,-0.0528 0.66842,0.008 0.15084,0.061 -0.0265,0.10725 -0.39416,0.10271 -0.36763,-0.005 -0.49105,-0.0545 -0.27426,-0.11096 z m -44.523961,-18.17147 -0.654405,-0.72412 0.724123,0.6544 c 0.398268,0.35992 0.724123,0.68578 0.724123,0.72413 0,0.17213 -0.183844,0.0206 -0.793841,-0.65441 z m -15.025457,-9.6364 c 0.28781,-0.30636 0.573423,-0.55702 0.634695,-0.55702 0.06127,0 -0.124078,0.25066 -0.411888,0.55702 -0.28781,0.30636 -0.573422,0.55702 -0.634694,0.55702 -0.06127,0 0.124077,-0.25066 0.411887,-0.55702 z M 159.65319,118.64551 c 0,-0.30636 0.0506,-0.43169 0.11238,-0.27851 0.0618,0.15318 0.0618,0.40383 0,0.55701 -0.0618,0.15318 -0.11238,0.0279 -0.11238,-0.2785 z m 3.32452,-4.80892 c 0.0107,-0.25956 0.0635,-0.31235 0.13461,-0.13461 0.0644,0.16083 0.0564,0.35301 -0.0176,0.42704 -0.074,0.074 -0.1267,-0.0576 -0.11702,-0.29243 z M 62.307051,80.391919 c 0.214452,-0.05604 0.565373,-0.05604 0.779825,0 0.214452,0.05604 0.03899,0.101896 -0.389912,0.101896 -0.428904,0 -0.604364,-0.04585 -0.389913,-0.101896 z M 110.87898,56.774377 c 0.21445,-0.05604 0.56537,-0.05604 0.77982,0 0.21446,0.05604 0.039,0.101894 -0.38991,0.101894 -0.4289,0 -0.60436,-0.04585 -0.38991,-0.101894 z m 14.26389,-0.223624 c 0.21678,-0.05649 0.51757,-0.05278 0.66842,0.0083 0.15085,0.06103 -0.0265,0.107252 -0.39415,0.102711 -0.36763,-0.0045 -0.49106,-0.05447 -0.27427,-0.110967 z m 14.25965,-0.222807 c 0.21678,-0.05649 0.51757,-0.05278 0.66842,0.0083 0.15085,0.06103 -0.0265,0.107252 -0.39415,0.102711 -0.36764,-0.0045 -0.49106,-0.05448 -0.27427,-0.110967 z m -22.28494,-3.118482 c 0.21445,-0.05604 0.56537,-0.05604 0.77982,0 0.21445,0.05604 0.039,0.101895 -0.38991,0.101895 -0.4289,0 -0.60437,-0.04585 -0.38991,-0.101895 z m 14.25965,-0.222807 c 0.21445,-0.05604 0.56537,-0.05604 0.77982,0 0.21445,0.05604 0.039,0.101895 -0.38991,0.101895 -0.42891,0 -0.60437,-0.04585 -0.38991,-0.101895 z"
         id="path372535" />
      <path
         style="fill:#000000;fill-opacity:1;stroke-width:0.222807"
         d="m 107.88501,161.94067 c 0.16084,-0.0644 0.35301,-0.0565 0.42705,0.0176 0.074,0.074 -0.0576,0.1267 -0.29244,0.11702 -0.25955,-0.0107 -0.31235,-0.0635 -0.13461,-0.13461 z m 7.79825,0 c 0.16083,-0.0644 0.35301,-0.0565 0.42704,0.0176 0.074,0.074 -0.0576,0.1267 -0.29243,0.11702 -0.25956,-0.0107 -0.31235,-0.0635 -0.13461,-0.13461 z m -4.02446,-3.33746 c 0.15318,-0.0618 0.40384,-0.0618 0.55702,0 0.15318,0.0618 0.0279,0.11238 -0.27851,0.11238 -0.30636,0 -0.43169,-0.0506 -0.27851,-0.11238 z m -42.066813,-16.73007 -0.76783,-0.83553 0.835526,0.76783 c 0.77769,0.71468 0.93797,0.90322 0.76783,0.90322 -0.03723,0 -0.41322,-0.37598 -0.835526,-0.83552 z M 162.97771,123.8629 c 0.0107,-0.25956 0.0635,-0.31235 0.13461,-0.13461 0.0644,0.16084 0.0564,0.35301 -0.0176,0.42705 -0.074,0.074 -0.1267,-0.0576 -0.11702,-0.29244 z m -3.32452,-4.32617 c 0,-0.30636 0.0506,-0.43168 0.11238,-0.27851 0.0618,0.15318 0.0618,0.40384 0,0.55702 -0.0618,0.15318 -0.11238,0.0279 -0.11238,-0.27851 z m -0.0176,-3.02646 c 0.0107,-0.25956 0.0635,-0.31235 0.13461,-0.13461 0.0644,0.16084 0.0565,0.35301 -0.0176,0.42705 -0.074,0.074 -0.12669,-0.0576 -0.11702,-0.29244 z M 99.854032,105.78403 c 0.400458,-0.0496 1.002038,-0.0486 1.336838,0.002 0.33481,0.0508 0.007,0.0914 -0.72811,0.0902 -0.735262,-0.001 -1.00919,-0.0428 -0.608728,-0.0924 z M 61.197257,80.391104 c 0.216784,-0.05649 0.517573,-0.05278 0.668421,0.0083 0.150847,0.06103 -0.02652,0.107252 -0.394153,0.102711 -0.367631,-0.0045 -0.491052,-0.05448 -0.274268,-0.110966 z M 109.54214,56.774377 c 0.21445,-0.05604 0.56537,-0.05604 0.77982,0 0.21445,0.05604 0.039,0.101894 -0.38991,0.101894 -0.4289,0 -0.60436,-0.04585 -0.38991,-0.101894 z m 14.25965,-0.222807 c 0.21445,-0.05604 0.56537,-0.05604 0.77982,0 0.21445,0.05604 0.039,0.101894 -0.38991,0.101894 -0.4289,0 -0.60437,-0.04585 -0.38991,-0.101894 z m 14.25965,-0.222807 c 0.21445,-0.05604 0.56537,-0.05604 0.77982,0 0.21445,0.05604 0.039,0.101894 -0.38991,0.101894 -0.42891,0 -0.60437,-0.04585 -0.38991,-0.101894 z m 9.39242,-0.570536 -0.42444,-0.501316 0.50131,0.424444 c 0.27573,0.233445 0.50132,0.459037 0.50132,0.501316 0,0.178302 -0.17931,0.04667 -0.57819,-0.424444 z m -28.99944,-2.548763 c 0.21445,-0.05604 0.56537,-0.05604 0.77982,0 0.21445,0.05604 0.039,0.101895 -0.38991,0.101895 -0.4289,0 -0.60436,-0.04585 -0.38991,-0.101895 z m 14.26389,-0.223623 c 0.21678,-0.05649 0.51757,-0.05278 0.66842,0.0083 0.15085,0.06103 -0.0265,0.107252 -0.39415,0.102711 -0.36764,-0.0045 -0.49106,-0.05448 -0.27427,-0.110967 z"
         id="path372533" />
      <path
         style="fill:#000000;fill-opacity:1;stroke-width:0.222807"
         d="m 108.55343,161.94067 c 0.16084,-0.0644 0.35301,-0.0565 0.42705,0.0176 0.074,0.074 -0.0576,0.1267 -0.29243,0.11702 -0.25956,-0.0107 -0.31236,-0.0635 -0.13462,-0.13461 z m 2.21415,-3.33746 c 0.15318,-0.0618 0.40383,-0.0618 0.55701,0 0.15318,0.0618 0.0279,0.11238 -0.2785,0.11238 -0.30636,0 -0.43169,-0.0506 -0.27851,-0.11238 z m 48.88561,-38.17525 c 0,-0.30636 0.0506,-0.43169 0.11238,-0.27851 0.0618,0.15318 0.0618,0.40384 0,0.55702 -0.0618,0.15318 -0.11238,0.0279 -0.11238,-0.27851 z m -51.22085,-63.6544 c 0.21679,-0.05649 0.51758,-0.05278 0.66842,0.0083 0.15085,0.06103 -0.0265,0.107252 -0.39415,0.102711 -0.36763,-0.0045 -0.49105,-0.05448 -0.27427,-0.110967 z m 14.25965,-0.222807 c 0.21679,-0.05649 0.51758,-0.05278 0.66842,0.0083 0.15085,0.06103 -0.0265,0.107252 -0.39415,0.102711 -0.36763,-0.0045 -0.49105,-0.05447 -0.27427,-0.110967 z m 14.25965,-0.222807 c 0.21678,-0.05649 0.51757,-0.05278 0.66842,0.0083 0.15085,0.06103 -0.0265,0.107252 -0.39415,0.102711 -0.36763,-0.0045 -0.49105,-0.05448 -0.27427,-0.110967 z M 119.7955,53.208648 c 0.21679,-0.05649 0.51757,-0.05278 0.66842,0.0083 0.15085,0.06103 -0.0265,0.107252 -0.39415,0.102711 -0.36763,-0.0045 -0.49105,-0.05448 -0.27427,-0.110967 z m 14.0326,-0.221991 c 0.21445,-0.05604 0.56537,-0.05604 0.77983,0 0.21445,0.05604 0.039,0.101895 -0.38992,0.101895 -0.4289,0 -0.60436,-0.04585 -0.38991,-0.101895 z"
         id="path372531" />
      <path
         style="fill:#000000;fill-opacity:1;stroke-width:0.222807"
         d="m 109.22185,161.94067 c 0.16084,-0.0644 0.35301,-0.0565 0.42705,0.0176 0.074,0.074 -0.0576,0.1267 -0.29243,0.11702 -0.25956,-0.0107 -0.31236,-0.0635 -0.13462,-0.13461 z m 5.34737,0 c 0.16084,-0.0644 0.35301,-0.0565 0.42705,0.0176 0.074,0.074 -0.0576,0.1267 -0.29244,0.11702 -0.25955,-0.0107 -0.31235,-0.0635 -0.13461,-0.13461 z m -4.69287,-3.33746 c 0.15318,-0.0618 0.40384,-0.0618 0.55702,0 0.15318,0.0618 0.0279,0.11238 -0.27851,0.11238 -0.30636,0 -0.43169,-0.0506 -0.27851,-0.11238 z m 49.7851,-37.17262 c 0.005,-0.36763 0.0545,-0.49105 0.11097,-0.27427 0.0565,0.21679 0.0528,0.51758 -0.008,0.66843 -0.061,0.15084 -0.10725,-0.0265 -0.10271,-0.39416 z m 3.31626,-6.03435 c 0.0107,-0.25956 0.0635,-0.31236 0.13461,-0.13462 0.0644,0.16084 0.0564,0.35302 -0.0176,0.42705 -0.074,0.074 -0.1267,-0.0576 -0.11702,-0.29243 z M 132.67596,82.197993 c 0.0107,-0.259559 0.0635,-0.312353 0.13461,-0.134614 0.0644,0.160838 0.0564,0.353009 -0.0176,0.427048 -0.074,0.07404 -0.1267,-0.05756 -0.11703,-0.292434 z m -3.34211,-0.891228 c 0.0107,-0.259559 0.0635,-0.312354 0.13461,-0.134614 0.0644,0.160838 0.0565,0.353009 -0.0176,0.427048 -0.074,0.07404 -0.12669,-0.05756 -0.11702,-0.292434 z M 121.35091,56.55157 c 0.21445,-0.05604 0.56537,-0.05604 0.77982,0 0.21446,0.05604 0.039,0.101894 -0.38991,0.101894 -0.4289,0 -0.60436,-0.04585 -0.38991,-0.101894 z m 14.25965,-0.222807 c 0.21445,-0.05604 0.56537,-0.05604 0.77982,0 0.21445,0.05604 0.039,0.101894 -0.38991,0.101894 -0.4289,0 -0.60436,-0.04585 -0.38991,-0.101894 z M 120.9053,53.209464 c 0.21445,-0.05604 0.56537,-0.05604 0.77982,0 0.21445,0.05604 0.039,0.101895 -0.38991,0.101895 -0.42891,0 -0.60437,-0.04585 -0.38991,-0.101895 z m 14.25964,-0.222807 c 0.21446,-0.05604 0.56538,-0.05604 0.77983,0 0.21445,0.05604 0.039,0.101895 -0.38991,0.101895 -0.42891,0 -0.60437,-0.04585 -0.38992,-0.101895 z"
         id="path372529" />
      <path
         style="fill:#000000;fill-opacity:1;stroke-width:0.222807"
         d="m 109.89027,161.94067 c 0.16084,-0.0644 0.35301,-0.0565 0.42705,0.0176 0.074,0.074 -0.0576,0.1267 -0.29243,0.11702 -0.25956,-0.0107 -0.31236,-0.0635 -0.13462,-0.13461 z m 4.01053,0 c 0.16084,-0.0644 0.35301,-0.0565 0.42705,0.0176 0.074,0.074 -0.0576,0.1267 -0.29244,0.11702 -0.25956,-0.0107 -0.31235,-0.0635 -0.13461,-0.13461 z m -4.91568,-3.33746 c 0.15318,-0.0618 0.40384,-0.0618 0.55702,0 0.15318,0.0618 0.0279,0.11238 -0.27851,0.11238 -0.30636,0 -0.43169,-0.0506 -0.27851,-0.11238 z m 50.66807,-36.16999 c 0,-0.30635 0.0506,-0.43168 0.11238,-0.2785 0.0618,0.15318 0.0618,0.40383 0,0.55701 -0.0618,0.15318 -0.11238,0.0279 -0.11238,-0.27851 z M 114.12361,84.181024 c 0.16083,-0.06436 0.35301,-0.05645 0.42704,0.01758 0.074,0.07404 -0.0576,0.126697 -0.29243,0.117022 -0.25956,-0.01069 -0.31235,-0.06349 -0.13461,-0.134611 z m 18.57819,-2.855693 c 0.005,-0.367631 0.0545,-0.491053 0.11097,-0.274269 0.0565,0.216785 0.0528,0.517574 -0.008,0.668421 -0.061,0.150847 -0.10725,-0.02652 -0.10271,-0.394152 z M 120.24111,56.550753 c 0.21679,-0.05649 0.51758,-0.05278 0.66843,0.0083 0.15084,0.06103 -0.0265,0.107252 -0.39416,0.102711 -0.36763,-0.0045 -0.49105,-0.05447 -0.27427,-0.110967 z m 14.03261,-0.22199 c 0.21445,-0.05604 0.56537,-0.05604 0.77982,0 0.21445,0.05604 0.039,0.101894 -0.38991,0.101894 -0.4289,0 -0.60437,-0.04585 -0.38991,-0.101894 z m -26.28699,-2.897308 c 0.21678,-0.05649 0.51757,-0.05278 0.66842,0.0083 0.15085,0.06103 -0.0265,0.107252 -0.39415,0.102711 -0.36763,-0.0045 -0.49106,-0.05448 -0.27427,-0.110967 z m 14.25965,-0.222807 c 0.21678,-0.05649 0.51757,-0.05278 0.66842,0.0083 0.15085,0.06103 -0.0265,0.107252 -0.39415,0.102711 -0.36764,-0.0045 -0.49106,-0.05448 -0.27427,-0.110967 z m 14.25965,-0.222807 c 0.21678,-0.05649 0.51757,-0.05278 0.66842,0.0083 0.15084,0.06103 -0.0265,0.107252 -0.39415,0.102711 -0.36764,-0.0045 -0.49106,-0.05448 -0.27427,-0.110967 z"
         id="path372527" />
      <path
         style="fill:#000000;fill-opacity:1;stroke-width:0.222807"
         d="m 110.55869,161.94067 c 0.16084,-0.0644 0.35302,-0.0565 0.42705,0.0176 0.074,0.074 -0.0576,0.1267 -0.29243,0.11702 -0.25956,-0.0107 -0.31235,-0.0635 -0.13462,-0.13461 z m -2.4648,-3.33746 c 0.15318,-0.0618 0.40384,-0.0618 0.55702,0 0.15318,0.0618 0.0279,0.11238 -0.27851,0.11238 -0.30636,0 -0.43169,-0.0506 -0.27851,-0.11238 z m 51.5593,-35.27876 c 0,-0.30636 0.0506,-0.43169 0.11238,-0.27851 0.0618,0.15318 0.0618,0.40384 0,0.55702 -0.0618,0.15318 -0.11238,0.0279 -0.11238,-0.27851 z m -31.47939,-3.73201 c -0.27714,-0.35339 -0.26926,-0.36127 0.0841,-0.0841 0.37114,0.29107 0.48917,0.47404 0.30579,0.47404 -0.0463,0 -0.22173,-0.17546 -0.38992,-0.38991 z m -0.89122,-5.57018 c -0.27715,-0.35339 -0.26927,-0.36127 0.0841,-0.0841 0.37114,0.29107 0.48917,0.47403 0.30579,0.47403 -0.0463,0 -0.22173,-0.17546 -0.38991,-0.38991 z m -2.14796,-4.06623 c 0,-0.4289 0.0459,-0.60436 0.10189,-0.38991 0.056,0.21445 0.056,0.56537 0,0.77982 -0.056,0.21446 -0.10189,0.039 -0.10189,-0.38991 z m -24.61617,-7.50987 c 0.27573,-0.0531 0.72691,-0.0531 1.00264,0 0.27572,0.0531 0.0501,0.0966 -0.50132,0.0966 -0.55145,0 -0.77704,-0.0435 -0.50132,-0.0966 z M 114.7781,84.185665 c 0.15318,-0.06181 0.40384,-0.06181 0.55702,0 0.15318,0.06181 0.0279,0.112382 -0.27851,0.112382 -0.30636,0 -0.43169,-0.05057 -0.27851,-0.112382 z m 4.12193,-27.634095 c 0.21445,-0.05604 0.56538,-0.05604 0.77983,0 0.21445,0.05604 0.039,0.101894 -0.38992,0.101894 -0.4289,0 -0.60436,-0.04585 -0.38991,-0.101894 z m 14.26389,-0.223624 c 0.21679,-0.05649 0.51758,-0.05278 0.66842,0.0083 0.15085,0.06103 -0.0265,0.107252 -0.39415,0.102711 -0.36763,-0.0045 -0.49105,-0.05448 -0.27427,-0.110967 z m -24.0674,-2.895675 c 0.21446,-0.05604 0.56538,-0.05604 0.77983,0 0.21445,0.05604 0.039,0.101895 -0.38991,0.101895 -0.42891,0 -0.60437,-0.04585 -0.38992,-0.101895 z m 14.25965,-0.222807 c 0.21445,-0.05604 0.56538,-0.05604 0.77983,0 0.21445,0.05604 0.039,0.101895 -0.38992,0.101895 -0.4289,0 -0.60436,-0.04585 -0.38991,-0.101895 z m 14.26389,-0.223623 c 0.21679,-0.05649 0.51758,-0.05278 0.66842,0.0083 0.15085,0.06103 -0.0265,0.107252 -0.39415,0.102711 -0.36763,-0.0045 -0.49105,-0.05448 -0.27427,-0.110967 z"
         id="path372525" />
      <path
         style="fill:#000000;fill-opacity:1;stroke-width:0.222807"
         d="m 107.92679,161.85518 c -13.580734,-0.75046 -26.020977,-5.46132 -36.272263,-13.73554 -4.379518,-3.53489 -10.180865,-9.80219 -13.61293,-14.70631 -0.78459,-1.12111 -1.041615,-1.34722 -1.346148,-1.18424 -0.801064,0.42872 -2.317522,2.33988 -2.93206,3.69521 -0.667159,1.47139 -1.118121,1.88261 -2.064553,1.88261 -0.632675,0 -1.479065,-0.9282 -1.479065,-1.62202 0,-0.24634 0.34542,-1.16025 0.767599,-2.03092 2.313201,-4.77054 7.240163,-7.43464 14.527646,-7.85536 2.464015,-0.14225 2.488469,-0.13877 3.063596,0.43636 0.950086,0.95008 0.689545,2.14526 -0.562825,2.58184 -0.388505,0.13543 -1.384432,0.24624 -2.213173,0.24624 -1.464385,0 -4.254994,0.43597 -5.286112,0.82584 -0.49535,0.1873 -0.468333,0.24774 0.978965,2.18997 2.680197,3.59674 4.147083,5.29488 7.319778,8.47375 9.85521,9.87437 20.538303,15.16905 34.655405,17.17564 3.79622,0.53959 13.26538,0.54037 17.71315,0.002 8.09893,-0.98131 15.70387,-2.75247 24.4565,-5.69583 4.55108,-1.53045 8.91262,-3.16282 9.22957,-3.4543 0.14576,-0.13405 0.67243,-1.59727 1.17038,-3.25162 2.71206,-9.01033 3.97256,-18.99653 3.71232,-29.41052 -0.43719,-17.495495 -4.4403,-35.393462 -11.88531,-53.139474 -1.51918,-3.621128 -1.79683,-4.123047 -2.8596,-5.169404 -2.0296,-1.998256 -1.14472,-1.924608 -19.76784,-1.645269 -8.84818,0.132719 -16.75024,0.290951 -17.56014,0.351627 -2.78108,0.208353 -5.00701,1.721589 -6.09343,4.142443 -0.54838,1.221967 -0.60843,1.57755 -0.51948,3.076568 0.0602,1.014883 0.26162,2.007791 0.50198,2.474736 0.63289,1.229502 8.16781,11.817722 9.0118,12.663564 1.16207,1.16461 2.52981,1.695602 4.36466,1.694472 1.50981,-8.91e-4 1.86938,-0.128038 11.25175,-3.977481 5.33066,-2.187087 9.97436,-4.058751 10.31934,-4.159254 1.35403,-0.394466 2.49838,0.916511 1.89681,2.173018 -0.24795,0.517908 -0.79406,0.829867 -3.08373,1.76155 l -2.78242,1.132187 0.0703,2.878339 c 0.0891,3.646268 -0.34045,5.436191 -2.16123,9.005535 -3.4699,6.802151 -5.14872,13.072053 -5.22013,19.495613 l -0.0322,2.89649 1.22073,1.10617 c 3.73549,3.38482 7.12511,7.23809 7.12511,8.09962 0,0.85227 -0.74347,1.60025 -1.59061,1.60025 -0.74111,0 -0.65671,0.076 -4.15559,-3.74219 -4.91255,-5.36086 -11.60896,-9.88661 -17.37581,-11.74337 -8.74616,-2.81601 -17.567206,-1.97634 -26.093767,2.48385 -2.5722,1.34551 -2.805272,1.42548 -3.41655,1.17228 -0.751617,-0.31133 -1.128949,-1.09187 -0.923519,-1.91037 0.249,-0.9921 4.513424,-3.31675 8.525699,-4.64759 0.993075,-0.3294 1.80559,-0.71922 1.80559,-0.86627 0,-0.61925 -2.962936,-6.189316 -4.262532,-8.013194 -1.759558,-2.469403 -4.539691,-5.268793 -6.750059,-6.796819 -3.390071,-2.343555 -8.091913,-4.146363 -12.257391,-4.699802 -4.622222,-0.614123 -11.660178,-0.09698 -15.455839,1.135685 -1.48737,0.483033 -2.837139,-0.811019 -2.231775,-2.139649 0.301414,-0.661532 1.238538,-1.047828 3.971632,-1.63717 3.353867,-0.723198 6.678428,-0.998871 10.360526,-0.859091 11.646914,0.442139 20.753731,5.789491 26.702157,15.679008 0.722606,1.201362 2.223871,4.274042 3.000957,6.142152 0.284034,0.68281 0.459421,0.7108 2.381096,0.38002 1.728675,-0.29757 7.322225,-0.29391 9.469295,0.006 4.91008,0.6863 10.0687,2.61765 14.55218,5.44823 1.07997,0.68182 1.99233,1.23967 2.02747,1.23967 0.0351,0 0.12954,-1.07783 0.20979,-2.39517 0.37222,-6.11039 1.86224,-11.36938 5.15112,-18.180726 0.89652,-1.856722 1.75896,-3.927304 1.91652,-4.601295 0.28722,-1.228607 0.40635,-4.775757 0.16838,-5.013721 -0.0697,-0.06975 -2.42092,0.812918 -5.22482,1.961488 -7.07925,2.899893 -7.06861,2.896812 -9.63136,2.789263 -1.88707,-0.07919 -2.33421,-0.181118 -3.64586,-0.831061 -0.9526,-0.472026 -1.9252,-1.196111 -2.6807,-1.995752 -1.53037,-1.61978 -8.924226,-12.103292 -9.525381,-13.505733 -2.068897,-4.826537 -0.121617,-10.506233 4.420341,-12.892965 0.82886,-0.435552 2.00282,-0.9057 2.60879,-1.044772 1.3385,-0.307186 34.69893,-0.894317 36.46127,-0.641704 3.39478,0.486609 5.9043,2.411302 7.45442,5.717218 3.20195,6.828765 7.44732,19.220544 9.43268,27.533017 4.98503,20.871683 5.45507,38.967993 1.44841,55.763093 -0.94236,3.95021 -2.48864,8.77386 -2.97216,9.27171 -1.0068,1.03666 -14.48277,5.63681 -21.98074,7.50334 -9.34974,2.3275 -19.1964,3.3683 -27.51666,2.90853 z"
         id="path372523" />
    </g>
  </g>
</svg>
